<svg id="Layer_1" data-name="Layer 1" xmlns="http://www.w3.org/2000/svg" viewBox="0 0 315 233"><defs><style>.cls-1{fill:blue;}</style></defs><title>Artboard 2 copy</title><path class="cls-1" d="M263.52,100.18H202.33a35.27,35.27,0,0,0,.7-6.94V38.81c0-21.06-14.68-28.57-28.66-28.57H69.24c-14,0-28.52,7.5-28.52,28.52V93.19c0,19.15,12.16,27.08,24.74,28.33v24.79a4.66,4.66,0,0,0,8.25,3L97,121.71h47.44a36,36,0,0,0-.28,4.24v48.32c0,19.06,13.37,25.86,25.86,25.86h9l21.44,25.58a4.66,4.66,0,0,0,8.25-3v-22.6h54.8c19.06,0,25.86-13.37,25.86-25.86V126c0-19.06-13.33-25.77-25.86-25.77M147,112.49H94.64a4.65,4.65,0,0,0-3.59,1.68L74.79,133.59V117.05a4.66,4.66,0,0,0-4.66-4.66h-.88c-7.18,0-19.2-2.52-19.2-19.2V38.81c0-16.73,12-19.2,19.2-19.2H174.37c7.18,0,19.2,2.52,19.2,19.25V93.19a24.57,24.57,0,0,1-.84,7H170.08a24.75,24.75,0,0,0-22.88,12.21Zm133.09,61.79a15,15,0,0,1-16.54,16.54H204a4.66,4.66,0,0,0-4.66,4.66v14.45L184.72,192.5a4.66,4.66,0,0,0-3.59-1.68h-11a15,15,0,0,1-16.54-16.54V126a15,15,0,0,1,16.54-16.45h93.43A15,15,0,0,1,280.06,126Z"/><path class="cls-1" d="M131.31,39.6a20.32,20.32,0,0,0-8.9-1.86A19.54,19.54,0,0,0,113.09,40a16.32,16.32,0,0,0-6.2,5.64,12.58,12.58,0,0,0-2.42,6.94,4.2,4.2,0,0,0,1.35,3,4.66,4.66,0,0,0,3.31,1.4q3.31,0,4.66-4a15.48,15.48,0,0,1,3.08-5.69,7.41,7.41,0,0,1,5.64-2,7.59,7.59,0,0,1,5.36,1.91A6.15,6.15,0,0,1,130,51.9a5.31,5.31,0,0,1-.7,2.66,9.82,9.82,0,0,1-1.68,2.24q-1,1-3.22,2.93a54.84,54.84,0,0,0-4.05,3.87A12.36,12.36,0,0,0,117,72.46,4.66,4.66,0,0,0,118.26,76a4.24,4.24,0,0,0,3,1.17,3.87,3.87,0,0,0,4.14-3.57v-.06c.23-1.12.47-2,.56-2.38a7.2,7.2,0,0,1,.56-1.35,7.68,7.68,0,0,1,1.07-1.49,24.27,24.27,0,0,1,1.91-1.91q4.29-3.82,6-5.45a15.84,15.84,0,0,0,2.84-3.87,10.72,10.72,0,0,0,1.21-5.17,12.44,12.44,0,0,0-2.1-7,14.45,14.45,0,0,0-6.15-5.31"/><path class="cls-1" d="M121.53,80.33a5.17,5.17,0,0,0-3.78,1.49,5,5,0,0,0-1.54,3.68,4.66,4.66,0,0,0,1.58,3.87,5.49,5.49,0,0,0,3.73,1.4,5.31,5.31,0,0,0,3.63-1.4,4.66,4.66,0,0,0,1.58-3.82,5.13,5.13,0,0,0-5.08-5.17h-.09Z"/><path class="cls-1" d="M220.13,120.5a5.88,5.88,0,0,0-4.66,1.82,7.18,7.18,0,0,0-1.72,5.08q0,2.38.37,7.87l1.26,18.64a17.82,17.82,0,0,0,1.17,5.45,3,3,0,0,0,2.94,1.77,3.08,3.08,0,0,0,3-1.86,15.16,15.16,0,0,0,1.17-5.31l2-19.11a52,52,0,0,0,0-5.27,15.81,15.81,0,0,0-1.17-6.76,4.66,4.66,0,0,0-4.33-2.33"/><path class="cls-1" d="M219.81,168.22a5.83,5.83,0,0,0-5.87,5.78v.09a5.46,5.46,0,0,0,1.77,4.33A6.15,6.15,0,0,0,219.9,180a6,6,0,0,0,4.1-1.58,5.5,5.5,0,0,0,1.77-4.33A5.59,5.59,0,0,0,224,169.9a5.82,5.82,0,0,0-4.24-1.68"/></svg>